<?xml version="1.0" standalone="no"?>
<!DOCTYPE svg PUBLIC "-//W3C//DTD SVG 20010904//EN"
 "http://www.w3.org/TR/2001/REC-SVG-20010904/DTD/svg10.dtd">
<svg version="1.0" xmlns="http://www.w3.org/2000/svg"
 width="2000.000000pt" height="2000.000000pt" viewBox="0 0 2000.000000 2000.000000"
 preserveAspectRatio="xMidYMid meet">
<metadata>
Created by potrace 1.14, written by Peter Selinger 2001-2017
</metadata>
<g transform="translate(0.000000,2000.000000) scale(0.100000,-0.100000)"
fill="#000000" stroke="none">
<path d="M0 10000 l0 -10000 4640 0 4640 0 0 2140 0 2140 -3012 0 -3013 0
2860 2860 2860 2860 -2860 2860 -2860 2860 3013 0 3012 0 0 2140 0 2140 -4640
0 -4640 0 0 -10000z"/>
<path d="M10720 17860 l0 -2140 3012 0 3013 0 -2860 -2860 -2860 -2860 2860
-2860 2860 -2860 -3013 0 -3012 0 0 -2140 0 -2140 4640 0 4640 0 0 10000 0
10000 -4640 0 -4640 0 0 -2140z"/>
<path d="M8005 13010 c698 -698 1271 -1270 1272 -1270 2 0 3 572 3 1270 l0
1270 -1272 0 -1273 0 1270 -1270z"/>
<path d="M10720 13008 l0 -1273 1270 1270 c699 698 1270 1271 1270 1272 0 2
-571 3 -1270 3 l-1270 0 0 -1272z"/>
<path d="M8005 6990 l-1270 -1270 1273 0 1272 0 0 1270 c0 699 -1 1270 -3
1270 -1 0 -574 -571 -1272 -1270z"/>
<path d="M10720 6990 l0 -1270 1272 0 1273 0 -1270 1270 c-698 699 -1271 1270
-1272 1270 -2 0 -3 -571 -3 -1270z"/>
</g>
</svg>
